<svg width="243" height="241" viewBox="0 0 243 241" fill="none" xmlns="http://www.w3.org/2000/svg">
<path d="M89.5552 57.5026C88.6221 57.6207 91.4279 57.7162 92.3682 57.7162" stroke="#770000"/>
<path d="M90.3338 57.4991H91.8556" stroke="#770000"/>
<path d="M89.89 57.97V60.6134" stroke="#770000"/>
<path d="M90.746 58.2376C90.6493 58.6485 90.515 59.0885 90.4818 59.5087C90.4391 60.0491 90.598 58.4288 90.598 57.8868C90.598 57.8799 90.5513 58.1449 90.692 58.1151C90.7365 58.1056 90.8094 57.9982 90.8094 58.0443C90.8094 58.2313 90.6802 58.4224 90.591 58.5765C90.243 59.1775 89.9291 59.7629 89.6363 60.3887C89.5341 60.6073 89.7073 59.9101 89.7297 59.6693C89.7669 59.2687 89.7664 58.8754 89.7103 58.4778C89.6761 58.2351 89.5991 58.955 89.5518 59.1954C89.4836 59.542 89.4461 59.8718 89.4461 60.2246C89.4461 60.2524 89.4461 60.5459 89.4461 60.4511C89.4461 60.1248 89.4445 59.8038 89.4144 59.479" stroke="#770000"/>
<path d="M89.3818 59.3292C89.3218 59.3224 89.1608 60.5325 89.1608 60.6961C89.1608 60.7216 89.1608 61.0509 89.1608 60.9238" stroke="#770000"/>
<path d="M122.557 57.9353V58.1285" stroke="#770000"/>
<path d="M122.786 58.0126H124.655" stroke="#770000"/>
<path d="M123.358 57.6261H125.533" stroke="#770000"/>
<path d="M123.243 57.858H124.693" stroke="#770000"/>
<path d="M123.358 57.858H124.617" stroke="#770000"/>
<path d="M123.282 57.7421H125.876" stroke="#770000"/>
<path d="M124.617 57.7034V57.9739" stroke="#770000"/>
<path d="M123.053 57.5102H125.876" stroke="#770000"/>
<path d="M125.075 58.0898C124.657 58.2363 124.367 58.537 124.159 58.9228C123.938 59.3332 124.928 57.2358 124.821 57.6905C124.76 57.9463 124.426 59.5918 124.558 59.2534C125.102 57.8518 124.915 58.404 124.886 59.5561C124.851 60.9785 125.041 58.8654 125.13 58.4548C125.294 57.6952 124.958 61.557 125.058 60.7862C125.153 60.0553 125.328 59.3445 125.448 58.6179C125.488 58.3754 125.491 59.965 125.499 60.2817C125.512 60.7743 125.646 62.2391 125.686 61.7479C125.741 61.059 125.952 60.3719 126.143 59.7128" stroke="#770000"/>
<line x1="91.8456" y1="56.5" x2="123.445" y2="56.5" stroke="white"/>
<path d="M105.576 27.5057C163.099 26.9007 210.226 73.6356 210.823 131.904C211.421 190.173 165.263 237.889 107.74 238.494C50.2163 239.099 3.08948 192.364 2.49189 134.096C1.8943 75.8267 48.0525 28.1107 105.576 27.5057Z" fill="#D1D1D1" stroke="#7D7D7D"/>
<path d="M16.6736 80.5024L196.938 80.5024L106.66 237.996L16.6736 80.5024Z" fill="#770000" stroke="white"/>
<rect x="35.0726" y="56.5" width="144.157" height="151" fill="#770000" stroke="white"/>
<path d="M17.8576 185.5L107.642 28.015L196.156 185.5H17.8576Z" fill="#770000" stroke="white"/>
<line x1="35.5601" y1="185.5" x2="178.743" y2="185.5" stroke="#770000"/>
<line x1="35.0726" y1="155" x2="35.0726" y2="185" stroke="white"/>
<line x1="179.243" y1="155" x2="179.243" y2="185" stroke="white"/>
<path d="M89.0448 60.0979C88.482 61.0148 88.0095 61.9802 87.4733 62.9117C87.0897 63.5782 86.755 64.2452 86.4375 64.9457C86.0765 65.7423 86.7109 64.0561 86.7513 63.9523C87.2991 62.5442 87.8109 61.0678 88.5872 59.7677C88.6023 59.7424 89.1465 58.8945 89.1009 59.2433C88.9152 60.6647 88.5498 62.0515 88.3707 63.475C88.3146 63.9203 88.4499 63.1698 88.4693 63.0976C88.6762 62.3288 89.064 61.6415 89.453 60.9554C89.8616 60.2349 89.0456 62.2523 88.9571 62.4788C88.4889 63.6774 87.079 67.2099 87.2363 65.9308C87.3455 65.042 87.7453 64.204 88.0939 63.3918C88.1276 63.3133 88.4585 62.5604 88.2611 63.0477C87.7489 64.312 87.0224 65.5943 86.2498 66.7189C86.2347 66.7409 87.2174 64.5426 87.065 64.2853C86.9961 64.169 86.9064 64.504 86.8321 64.6169C86.5506 65.0445 86.2436 65.4546 85.9374 65.8642C85.5152 66.4292 85.0942 67.0077 84.6414 67.5486C84.0193 68.2916 85.2336 65.6934 85.5908 64.789C85.7875 64.291 85.5107 65.8595 85.4333 66.3901C85.4189 66.4888 85.2163 68.3918 85.4059 68.3672C85.4816 68.3574 86.1237 66.7749 85.6552 67.5556C85.508 67.8007 84.5728 69.1762 84.6304 68.9139" stroke="#770000"/>
<path d="M84.5564 68.6392C84.0729 69.5814 83.5671 70.5377 83.0589 71.464C82.5049 72.4739 83.6509 69.2227 84.1152 68.1674C84.193 67.9907 84.421 67.7257 84.5879 67.6346C84.9412 67.442 84.4492 68.4394 84.3112 68.8209C84.2119 69.0954 84.1487 69.3645 84.0769 69.6451C83.954 70.1251 84.4178 68.7126 84.6441 68.2729C84.8578 67.8576 84.3167 69.2093 84.4358 69.6617C84.477 69.8181 84.5534 69.3606 84.614 69.2108C84.7699 68.8252 84.4375 69.6891 84.4276 69.7131C83.9198 70.9429 83.4266 72.1247 82.989 73.376C82.6705 74.2868 83.3719 71.4817 83.5138 70.5261C83.5161 70.5104 83.605 70.007 83.4604 70.1709C82.8829 70.8253 82.4743 71.7657 82.0547 72.5296C81.8337 72.9319 81.4933 74.2044 81.7163 73.043C81.8684 72.2507 81.9824 71.4255 82.2314 70.6565C82.4983 69.8321 81.9203 72.363 81.7738 73.2178C81.6262 74.079 81.4272 74.9757 81.3998 75.854C81.3944 76.027 81.5504 75.1703 81.5669 75.102C81.674 74.6589 81.8918 73.0678 82.3232 72.7558C82.6484 72.5205 82.2386 74.3676 82.3122 73.9698C82.4623 73.1594 82.6611 72.3156 82.9288 71.5362" stroke="#770000"/>
<path d="M81.2765 73.3343C81.0901 73.6423 80.9957 74.0564 80.8956 74.3999C80.5241 75.6748 80.2438 77.0401 80.0653 78.3542C79.8743 79.7604 80.1188 78.3475 80.2023 77.7936C80.3768 76.6375 80.4649 75.4742 80.6407 74.3167C80.687 74.0125 80.3718 74.9227 80.3448 74.9854C79.8376 76.163 79.3956 77.3682 78.9282 78.5623C78.8775 78.6918 78.3042 80.7702 78.476 79.9886C78.7154 78.9001 79.0596 77.7541 79.1254 76.6393C79.1476 76.2635 78.8992 77.3567 78.772 77.7104C78.3987 78.7479 77.9921 79.7755 77.5964 80.8044C77.3385 81.4752 76.7622 83.5397 76.8429 82.8246C76.9708 81.6917 77.2897 80.584 77.517 79.4697C77.7687 78.2354 76.3938 84.3491 76.9032 83.1992C77.2951 82.3145 77.6318 81.407 78.0294 80.5242C78.2705 79.9887 77.9986 80.4729 77.8924 80.6934C77.659 81.1779 77.0868 82.6892 77.2786 82.1863C77.5169 81.5613 77.8272 80.9339 78.1938 80.3771" stroke="#770000"/>
<path d="M76.3689 82.1003C76.3231 82.772 75.8271 83.4912 75.64 84.1343C75.5191 84.55 75.4276 84.9827 75.2755 85.3886C75.1311 85.7743 75.3307 84.5649 75.3345 84.1524C75.3432 83.1953 75.1184 82.0661 75.9578 81.4427C76.3373 81.1609 76.3164 82.348 76.3195 82.8246C76.3226 83.286 76.8247 81.8882 76.8799 81.716C77.0433 81.2057 76.4096 83.0385 76.3552 83.2269C76.1556 83.9182 76.0676 84.6361 75.9167 85.3387C75.8777 85.5207 75.6478 85.8909 75.8318 85.8909C75.9941 85.8909 75.925 83.2116 75.925 82.9481C75.925 82.8234 75.9491 82.6748 75.8729 82.8829C75.5174 83.8537 75.1179 84.8046 74.7385 85.766C74.5936 86.1332 73.9221 88.456 74.2535 86.8219C74.4554 85.8259 75.0125 84.7698 75.0125 83.7459C75.0125 83.2863 74.8759 84.6548 74.7878 85.1056C74.6543 85.7886 74.4573 86.4923 74.4453 87.1923C74.4395 87.5277 74.5046 87.305 74.5768 87.1105C74.8332 86.4201 75.0458 85.7164 75.2838 85.0195C75.4852 84.4298 75.3914 85.3713 75.3715 85.5135C75.2836 86.1415 75.0564 86.7249 74.7988 87.2978C74.6442 87.6414 74.2233 88.1223 74.2233 88.5035C74.2233 89.5509 74.3597 86.3634 74.0425 85.3664C73.9491 85.073 73.8586 85.955 73.7918 86.2558C73.5981 87.1272 73.3888 88.0145 73.2835 88.9017C73.2575 89.1206 73.2251 89.4825 73.278 89.0293C73.3556 88.364 73.4957 87.7145 73.5424 87.0439C73.5685 86.6694 73.6736 85.5542 73.5849 85.9186C73.4082 86.6446 73.2285 87.3703 73.078 88.1025C72.9017 88.9597 72.7465 89.8199 72.5875 90.6804C72.542 90.9263 72.466 91.5038 72.5025 90.8941C72.5413 90.2454 72.7176 89.6023 72.8368 88.9655C72.9056 88.5982 72.8135 87.5872 73.0588 87.8666C73.3237 88.1685 72.675 90.2613 72.6149 90.7081C72.5884 90.905 72.571 91.0872 72.571 90.7664C72.571 90.1473 72.5785 89.5277 72.5697 88.9086C72.5634 88.4724 72.5557 88.3445 72.3628 88.8434C72.0095 89.7569 71.6061 90.6628 71.2859 91.5878C71.1953 91.8496 71.08 92.145 71.0434 92.423C71.0002 92.751 71.0648 91.7591 71.1242 91.4338C71.2819 90.5712 71.7819 88.0106 71.7819 88.8878C71.7819 90.0039 71.6127 91.1194 71.6586 92.2343C71.6878 92.945 72.0086 90.8414 72.345 90.217C72.6181 89.7098 72.1539 91.3579 72.0038 91.9152" stroke="#770000"/>
<path d="M71.0667 92.2399C70.9025 92.7554 70.6567 93.236 70.4995 93.7536C70.3671 94.1893 70.2776 95.5615 70.3022 95.1064C70.3642 93.9607 70.5981 92.8587 70.5981 91.6946C70.5981 90.6399 70.1688 93.759 69.9761 94.7956C69.891 95.2535 69.809 96.649 69.809 96.1831C69.809 95.0009 70.2716 93.7617 70.483 92.6006C70.5246 92.3725 70.528 92.2266 70.5241 92.5673C70.5148 93.4012 70.3354 94.1931 70.157 95.0037C69.986 95.7805 69.727 98.1377 69.6857 97.343C69.6267 96.2094 69.7352 95.0682 69.6706 93.934C69.6679 93.8865 69.6541 93.2743 69.5678 93.5677C69.3863 94.1854 69.1719 94.7822 68.9513 95.3867C68.7224 96.0138 68.5668 96.6563 68.4087 97.3041C68.2815 97.8254 68.335 97.4536 68.3855 97.1487C68.5982 95.863 68.8505 94.5759 69.113 93.2999C69.3224 92.2819 68.9071 95.3721 68.8979 96.412C68.8933 96.9263 68.731 98.0566 69.0253 96.9822C69.1771 96.4281 69.6522 94.7733 69.5322 95.3353C69.4874 95.5453 69.3767 95.9219 69.2418 96.0859" stroke="#770000"/>
<path d="M67.7621 96.8851C67.5842 98.0947 67.3702 99.2333 67.3675 100.465C67.3673 100.569 67.3217 101.367 67.3839 100.848C67.4523 100.277 67.59 99.713 67.6744 99.1439C67.8083 98.2415 68.0087 95.5147 68.0087 96.4273C68.0087 97.2352 68.0087 98.0432 68.0087 98.8512C68.0087 99.4468 68.0706 98.6841 68.0936 98.5001C68.1517 98.0366 68.1362 97.5637 68.1306 97.0974C68.1304 97.0811 68.1174 96.4335 68.0471 96.4828C67.7957 96.659 67.6632 97.2996 67.562 97.5567C67.2099 98.4514 66.8686 99.3507 66.5098 100.243C66.2972 100.772 66.0653 101.292 65.9234 101.847C65.8679 102.064 65.8362 102.263 65.9056 101.902C66.1253 100.761 66.3684 99.6202 66.5592 98.4738C66.7076 97.582 66.4622 100.285 66.2961 101.174C66.1483 101.965 65.933 104.373 66.018 103.573C66.1252 102.563 66.3905 101.581 66.4495 100.565C66.4649 100.3 66.2365 101.049 66.1372 101.294C65.8585 101.982 65.5582 102.661 65.2905 103.353C64.9445 104.248 64.9642 104.237 65.1288 103.255C65.3132 102.155 65.6659 98.8373 65.6659 99.9528C65.6659 101.068 65.2828 102.216 65.0932 103.309C64.9488 104.141 64.8083 104.704 64.8931 103.495C64.9511 102.669 65.4391 100.246 65.1617 101.025C64.7532 102.172 64.3163 103.361 63.9999 104.536C63.9528 104.71 63.6087 106.42 63.6889 105.952C63.8817 104.826 64.3969 103.599 64.8808 102.571C65.288 101.706 64.7644 104.488 64.5863 105.429C64.23 107.31 64.8295 103.627 64.5972 103.682C64.3181 103.748 64.0598 104.464 63.9451 104.676C63.6395 105.24 63.2942 105.783 62.9997 106.353C62.8599 106.624 62.635 107.513 62.6846 107.212C62.8398 106.269 63.512 105.264 63.8656 104.372C63.9339 104.2 63.9933 103.965 63.9875 104.296C63.9765 104.928 63.8528 105.536 63.7423 106.156C63.5823 107.054 63.6239 106.853 63.5834 106.112C63.5742 105.945 63.2563 103.893 63.0216 104.633C62.7707 105.423 62.5904 106.247 62.4955 107.07C62.4326 107.617 62.4755 107.005 62.5092 106.8" stroke="#770000"/>
<path d="M62.2133 107.15C61.9753 108.114 61.8378 109.101 61.6324 110.072C61.4538 110.916 61.5721 109.155 61.5721 109.002C61.5721 108.451 61.5632 107.899 61.5735 107.348C61.5751 107.259 61.5602 107.012 61.6105 107.084C61.8958 107.497 61.8473 108.486 61.9804 108.995C62.0952 109.434 62.1402 109.003 62.2352 108.745C62.3274 108.495 62.8988 106.991 62.823 107.333C62.6264 108.219 62.1358 109.001 61.7749 109.823C61.5677 110.295 61.7201 109.166 61.7201 109C61.7201 108.829 61.8669 107.061 61.5255 107.821C60.857 109.309 60.1565 110.947 59.9116 112.57C59.807 113.263 60.145 111.188 60.2925 110.503C60.532 109.39 60.9802 106.019 60.9802 107.158C60.9802 108.773 60.673 110.304 60.4788 111.9C60.4031 112.522 60.1895 113.623 60.5733 112.437C60.8454 111.597 61.1235 110.713 61.4474 109.893C61.603 109.499 61.3018 110.728 61.2268 111.145" stroke="#770000"/>
<path d="M60.1171 111.345C59.4356 112.639 58.9125 114.04 58.3716 115.397C58.333 115.494 57.7937 116.9 57.9058 116.298C58.0745 115.394 58.3495 114.509 58.5278 113.604C58.69 112.781 59.1493 111.248 58.5004 112.891C58.255 113.512 57.9842 114.127 57.7523 114.753C57.3657 115.797 58.0483 113.916 58.1236 113.726C58.5123 112.749 59.737 109.858 59.48 110.879C59.0537 112.573 58.2145 114.271 57.6236 115.917C57.2862 116.856 56.9242 117.787 56.5768 118.722C56.3561 119.317 56.519 118.574 56.5617 118.377C56.7856 117.343 57.1034 116.335 57.3838 115.316C57.7209 114.091 57.5588 115.024 57.3578 115.685C57.0101 116.828 56.5967 117.943 56.3055 119.104C56.2833 119.192 56.0203 120.587 55.9603 120.591C55.9376 120.593 56.0094 120.229 56.0096 120.228C56.0783 119.891 56.1445 119.554 56.2014 119.215C56.285 118.717 56.3439 118.224 56.3439 117.719C56.3439 117.43 56.1658 118.269 56.0617 118.538C55.8716 119.029 55.6764 119.518 55.4862 120.009C55.0689 121.086 56.3438 115.463 56.0959 116.593C55.8045 117.921 55.3011 119.198 55.0286 120.54C55.0113 120.625 54.9061 121.216 54.9177 121.114C55.016 120.252 55.2029 119.363 55.4671 118.538C55.5713 118.212 55.6581 117.718 55.8493 117.428C56.1863 116.916 55.6038 118.634 55.4328 119.225C55.1302 120.269 54.3263 123.416 54.445 122.334" stroke="#770000"/>
<path d="M54.1984 120.811C53.9042 121.181 53.7295 121.614 53.5298 122.043C53.1985 122.753 52.384 124.114 52.5269 124.909C52.5838 125.226 52.8652 124.363 53.0133 124.078C53.4494 123.238 53.7968 122.361 54.1532 121.485C54.3868 120.911 54.5593 120.304 54.8039 119.738C55.533 118.05 53.038 122.976 52.4118 124.705C52.2144 125.25 52.6399 124.455 52.6831 124.382C53.0959 123.681 53.4996 122.974 53.912 122.273C54.091 121.969 54.4494 121.014 54.382 121.833C54.345 122.282 54.1984 122.724 54.1984 123.176C54.1984 123.252 54.5058 122.458 54.3778 122.677C53.3659 124.409 52.2716 126.097 51.2952 127.849C51.215 127.993 50.5804 129.086 50.5828 128.985C50.5987 128.29 50.8193 127.597 50.8718 126.901C50.9434 125.954 50.8253 124.921 51.0294 123.991C51.1939 123.241 50.7504 125.502 50.5444 126.241C50.2184 127.41 49.7593 131.014 49.7593 129.799C49.7593 129.466 49.98 129.099 50.1005 128.804C50.4619 127.916 50.8472 127.042 51.2226 126.161C51.3486 125.865 51.4684 125.566 51.587 125.267C51.6165 125.193 51.618 124.994 51.6788 125.045C51.7889 125.138 51.5717 125.879 51.5459 126.001C51.4448 126.479 51.0991 127.382 51.4473 126.366C51.6781 125.692 51.8886 125.016 52.1597 124.357C52.183 124.3 52.4247 123.684 52.2912 124.107C51.6559 126.119 50.5819 127.956 49.9429 129.965C49.49 131.389 49.9208 129.766 50.0416 129.252C50.2337 128.434 50.4316 127.614 50.6554 126.804C50.8244 126.193 50.4761 127.646 50.4444 127.742C49.9972 129.103 49.269 130.451 49.0743 131.885C48.9548 132.765 49.431 130.144 49.5401 129.263C49.5756 128.976 49.6032 128.737 49.5237 129.205C49.4139 129.85 49.1907 130.443 48.9702 131.056C48.8319 131.44 48.6616 132.624 48.592 132.221C48.5257 131.837 48.7084 131.307 48.7373 130.92C48.7679 130.509 49.0102 128.885 48.6112 130.026C48.1803 131.258 47.5231 132.48 47.3973 133.8C47.3286 134.521 47.6297 132.37 47.7864 131.663C48.3372 129.18 47.8113 133.029 48.044 132.693C48.187 132.486 48.6866 131.436 48.5975 132.107C48.5232 132.667 48.2797 134.337 48.2797 133.772" stroke="#770000"/>
<path d="M47.0713 133.722C45.4872 135.092 44.6906 137.165 44.0516 139.119C43.3811 141.171 45.707 135.108 46.8904 133.31C47.7513 132.002 44.5704 139.128 45.3039 137.743C46.0403 136.352 46.3753 134.775 47.2206 133.432C47.3813 133.177 47.9325 132.246 47.7947 133.056C47.619 134.089 47.2294 135.056 46.9397 136.056C46.7349 136.763 47.4079 134.819 47.4727 134.671C47.8415 133.833 49.0414 131.382 48.7948 132.265C48.2292 134.291 46.7429 136.136 45.7121 137.935C45.1892 138.847 44.6817 139.769 44.2051 140.707C44.1377 140.839 43.6809 141.846 43.8872 141.123C44.3355 139.551 44.9281 137.985 45.4806 136.446C46.0162 134.954 44.1926 139.341 43.4954 140.762C43.2308 141.302 42.9709 141.843 42.7624 142.408C42.7117 142.545 42.6076 142.965 42.6076 142.818C42.6076 141.218 43.9914 136.573 43.7091 138.148C43.3827 139.969 42.5106 141.645 41.9184 143.383C41.7925 143.753 41.6823 144.119 41.6211 144.506C41.6061 144.6 41.7024 143.805 41.7307 143.673C41.8523 143.109 42.0412 142.564 42.2171 142.015C42.2773 141.827 42.3899 141.26 42.4103 141.456C42.5201 142.513 41.9512 143.775 41.7773 144.815C41.593 145.917 41.8759 144.288 41.9499 144.053C42.1179 143.52 42.3382 143.004 42.535 142.481C42.572 142.383 42.7163 141.939 42.65 142.322C42.4962 143.21 42.1548 144.054 41.8622 144.902C41.7079 145.35 41.8704 143.967 41.8869 143.804C41.9869 142.815 41.4688 144.252 41.3608 144.493C41.0915 145.095 40.8297 145.7 40.5771 146.309C40.5595 146.352 40.4195 146.687 40.4182 146.673C40.323 145.64 40.6974 144.478 40.9128 143.482C41.1714 142.285 41.0842 143.302 41.0183 143.878C40.9482 144.491 40.7829 146.334 40.8374 145.72C40.8934 145.089 41.0654 144.46 41.1772 143.837" stroke="#770000"/>
<path d="M40.7826 145.76C40.2386 146.369 39.76 146.957 39.3879 147.7C39.0796 148.314 38.4706 150.277 38.5686 149.595C38.7393 148.406 38.9348 147.232 39.0714 146.036C39.0948 145.831 39.4107 143.196 39.3824 144.461C39.3515 145.846 39.2083 147.23 39.2345 148.615C39.2401 148.912 39.2087 149.302 39.3262 149.585C39.3397 149.617 39.6866 148.763 39.7208 148.658C40.1034 147.481 40.3593 146.224 40.5497 145C40.5513 144.989 40.2594 146.567 40.1839 146.975C40.1007 147.426 39.8874 148.781 39.9209 148.324C39.9968 147.286 40.13 146.261 40.1113 145.216C40.0947 144.288 39.9093 145.574 39.8811 145.802C39.8175 146.314 39.6147 147.831 39.8003 147.35C39.978 146.889 40.0767 146.295 40.114 145.804C40.1277 145.625 40.0777 145.836 40.0565 145.896C39.6897 146.939 39.2896 147.966 38.881 148.993C38.5178 149.905 38.1862 150.825 37.948 151.78C37.8772 152.064 37.8179 152.35 37.7603 152.636C37.7418 152.728 37.7924 152.934 37.7027 152.911C37.6362 152.894 38.297 149.357 38.3412 149.081" stroke="#770000"/>
<path d="M38.3658 148.282C38.4309 147.842 38.5295 146.519 38.5645 146.963C38.6611 148.185 38.3456 149.436 38.137 150.631C38.1075 150.801 37.676 152.506 37.8726 152.639C38.0944 152.789 37.9653 152.107 38.011 151.841C38.1317 151.137 38.1598 150.442 38.1932 149.731" stroke="#770000"/>
<path d="M38.1932 149.356C38.1915 149.246 38.0812 147.922 37.9589 147.98C37.6149 148.144 37.4509 150.327 37.389 150.67C37.2813 151.268 37.2807 151.862 37.2807 152.467C37.2807 152.991 37.4959 151.44 37.5876 150.924C37.6865 150.368 37.9365 148.695 37.9151 149.26C37.8788 150.216 37.5858 151.225 37.4424 152.171C37.3725 152.632 37.2807 154.026 37.2807 153.56C37.2807 152.803 37.4265 152.04 37.4534 151.279" stroke="#770000"/>
<path d="M36.097 151.479V156.424" stroke="#770000"/>
<path d="M36.6642 151.329C36.6642 151.81 36.7041 152.281 36.7135 152.758C36.7229 153.235 36.7875 153.708 36.7875 154.193C36.7875 154.682 36.6445 156.123 36.8026 155.661C37.3387 154.092 37.2717 151.791 36.7875 150.211C36.5985 149.594 36.6619 150.614 36.6382 150.835C36.5675 151.494 36.5162 152.141 36.5162 152.803" stroke="#770000"/>
<path d="M36.0723 153.227V156.524" stroke="#770000"/>
<path d="M126.143 59.5969C126.302 59.4185 126.255 60.1056 126.256 60.1572C126.267 60.9513 126.213 61.7566 126.283 62.5486C126.464 64.5891 126.665 61.8639 126.754 61.2584" stroke="#770000"/>
<path d="M126.792 60.9493C127.054 59.2812 126.911 62.9136 126.93 63.2828C126.959 63.8538 126.994 64.447 127.095 65.011C127.233 65.7792 127.157 63.4475 127.271 62.6753C127.352 62.1298 127.517 60.4879 127.517 61.0395C127.517 62.0012 127.517 62.963 127.517 63.9247C127.517 64.5604 127.449 65.2408 127.553 65.8718C127.667 66.5652 127.655 64.4695 127.725 63.7701C127.945 61.5739 127.885 63.0841 127.901 64.3111C127.91 65.0262 127.982 65.7284 128.104 66.4321C128.163 66.7709 128.169 65.5419 128.183 65.4145C128.238 64.9067 128.242 64.1478 128.441 63.6714C128.743 62.9496 128.662 65.2233 128.742 66.0027C128.808 66.6382 129.017 67.2449 129.079 67.8769C129.163 68.7254 129.339 66.1911 129.501 65.3544" stroke="#770000"/>
<path d="M129.654 64.5043C129.654 62.9392 129.748 67.6355 129.902 69.1928C130.001 70.1963 130.147 68.063 130.19 67.8318C130.394 66.7456 130.524 65.9634 130.565 67.6021C130.591 68.6188 130.568 69.6125 130.777 70.614C130.968 71.5238 131.085 68.7798 131.256 67.8661" stroke="#770000"/>
<path d="M131.447 67.1319C131.501 67.0641 131.485 67.565 131.485 67.5699C131.485 68.3202 131.474 69.0716 131.49 69.8218C131.5 70.2846 131.638 71.665 131.638 71.2022C131.638 70.8271 131.638 69.4078 131.638 69.5492C131.638 70.6545 131.569 71.7852 131.693 72.8852C131.697 72.9195 132.096 68.6223 132.096 71.4748C132.096 72.4574 132.194 72.0379 132.037 71.2988C131.507 68.8039 130.324 66.2144 129.071 64.0063C128.405 62.8332 127.613 62.4114 126.762 61.4517C126.383 61.0235 126.271 60.3778 126.037 59.8674C125.78 59.3034 126.128 60.5652 126.19 60.7733C126.627 62.2327 126.554 60.0339 126.334 59.5754C126.224 59.3449 126.297 60.5973 126.322 60.7733C126.519 62.1743 127.478 63.5726 128.323 64.6482C129.462 66.099 130.509 67.7425 131.362 69.3839C131.944 70.5026 131.978 71.5514 132.227 72.7435C132.526 74.1702 132.69 71.5546 132.74 71.1378C132.879 70.0005 132.821 70.56 132.821 71.3546C132.821 72.3571 132.821 75.3647 132.821 74.3622C132.821 73.0928 132.821 71.8233 132.821 70.5539C132.821 70.1178 132.821 70.5367 132.821 70.7256C132.821 71.6184 132.81 72.5121 132.829 73.4047C132.834 73.623 132.951 75.687 133.037 75.1393C133.175 74.2662 133.09 72.8945 133.516 72.1167C133.916 71.3881 133.715 73.7721 133.851 74.594C133.944 75.1521 133.922 75.372 134.042 74.6713C134.099 74.3402 134.363 73.0372 134.364 73.0441C134.482 73.7744 134.5 74.5088 134.5 75.2467" stroke="#770000"/>
<path d="M134.92 75.0921C134.58 77.2855 135.868 79.6027 136.781 81.4808C137.484 82.929 136.319 78.2492 135.689 76.7665C135.028 75.2109 134.129 73.6867 132.859 72.5611C132.768 72.4807 131.932 71.6668 131.969 72.151C132.111 74.0476 133.285 76.1626 134.29 77.7197C135.09 78.9591 134.967 77.9233 134.958 77.0027C134.955 76.7077 134.647 74.5844 134.496 75.7705C134.354 76.8751 134.246 80.2105 134.192 79.0979C134.128 77.7524 134.193 76.3881 133.86 75.0706C133.579 73.9617 134.278 77.3211 134.532 78.4367C134.627 78.855 134.616 78.5592 134.612 78.3122C134.597 77.4156 134.526 76.4961 134.271 75.6331C134.248 75.5555 134.082 74.9628 134.135 75.3669C134.328 76.8223 134.647 78.3008 135.045 79.7119C135.368 80.8589 135.86 81.9416 136.471 82.9599C136.493 82.9966 137.107 83.9215 137.133 83.8766C137.579 83.0987 137.269 80.7363 136.967 79.9051C136.811 79.4752 137.02 83.6225 137.247 82.4726" stroke="#770000"/>
<path d="M136.789 78.4539C136.789 85.9448 136.789 77.3094 136.789 83.9109C136.789 85.3383 136.789 85.5271 136.789 84.0183C136.789 82.8619 136.789 81.7055 136.789 80.5491C136.789 79.3269 136.789 82.9936 136.789 84.2158C136.789 84.3003 138.432 83.8293 138.612 83.4859C139.032 82.6871 137.955 80.503 137.576 79.8063C136.926 78.6139 136.699 78.9973 136.569 80.1198C136.474 80.9412 137.165 81.9351 137.474 82.6422C137.657 83.0614 137.805 83.6564 138.087 84.0226C138.445 84.4891 138.148 82.8384 138.099 82.2493C138.062 81.7996 138.007 81.2561 137.788 80.8497C137.454 80.2308 137.781 82.2606 137.824 82.9642C137.871 83.7369 138.01 85.9817 138.01 83.9066C138.01 82.9242 137.735 80.4907 138.152 82.844C138.4 84.2422 139.057 88.3972 139.163 86.9808C139.251 85.81 139.236 82.2919 139.329 83.4623C139.408 84.4646 139.537 87.4644 139.632 86.4634C139.756 85.1563 139.391 81.2432 139.676 82.5241C139.958 83.7886 140.014 85.1029 140.071 86.3926C140.105 87.1664 140.148 87.9298 140.291 88.6917C140.322 88.8573 140.286 89.3301 140.378 89.1898C140.625 88.8141 140.415 87.6359 140.414 87.2169C140.412 86.3193 140.55 85.229 140.308 84.3532C139.847 82.6793 140.64 87.8147 140.908 89.5311C141.084 90.6578 141.153 87.4577 141.207 87.0881C141.239 86.871 141.286 86.2443 141.368 86.8219C141.509 87.8086 141.447 88.8158 141.561 89.8059C141.768 91.5987 141.673 89.2349 141.673 88.7196C141.673 88.6365 141.617 87.6021 141.72 88.1228C141.918 89.1259 142.078 90.1364 142.278 91.139C142.538 92.4453 142.732 89.493 142.81 89.1447C142.889 88.7876 142.923 88.4349 143.032 88.9901C143.248 90.0812 143.358 91.1906 143.575 92.2832C144.055 94.7021 143.873 91.8644 144.014 90.9179C144.138 90.0827 144.23 90.0815 144.23 90.8879C144.23 91.0588 143.749 88.7759 143.429 88.2559C143.282 88.0176 143.314 89.0981 143.314 89.1125C143.314 90.2109 143.314 91.3093 143.314 92.4078C143.314 93.0191 143.333 92.3065 143.31 92.1029C143.153 90.7122 142.834 89.4005 142.398 88.0756" stroke="#770000"/>
<path d="M141.483 86.3368C141.496 86.9529 141.655 90.729 142.267 90.8922C142.288 90.8978 142.398 88.6745 142.398 88.3461" stroke="#770000"/>
<path d="M143.085 92.8285C143.126 92.766 143.431 92.223 143.496 92.3219C143.619 92.5086 143.607 92.898 143.645 93.1076C143.826 94.1133 144.097 95.0933 144.433 96.0572C144.513 96.2861 145.191 97.8795 145.205 97.8219C145.541 96.4614 145.475 94.8571 145.239 93.494C145.155 93.0076 144.865 92.249 145.018 93.2364C145.265 94.822 145.39 96.4337 145.695 98.0086C145.933 99.2408 145.604 95.9093 145.553 95.6107C145.385 94.6397 145.157 93.6862 144.798 92.7684C144.585 92.2249 144.562 92.32 144.637 92.8543C144.772 93.8125 144.85 94.7877 145.023 95.7395C145.128 96.3199 144.621 94.0729 144.516 93.7752C144.484 93.6828 143.86 92.037 144.069 92.8049C144.341 93.8087 144.579 94.8051 144.917 95.791C145.197 96.6093 144.734 90.8864 145.216 93.7988C145.568 95.9321 145.863 98.1532 146.549 100.209C147.069 101.768 146.786 99.5673 146.786 98.994C146.786 97.8792 146.834 96.7734 146.863 95.6622C146.889 94.6219 147.257 97.7053 147.425 98.7321C147.46 98.9493 147.829 101.444 147.711 100.233C147.463 97.6948 146.646 95.0544 145.561 92.7598C144.919 91.4004 146.536 98.6645 146.594 97.1585C146.626 96.2986 146.645 95.3987 146.468 94.5545C146.199 93.263 146.489 97.1964 146.583 98.5131C146.657 99.5585 146.636 101.22 147.151 102.175C147.235 102.331 147.168 101.821 147.17 101.643C147.183 100.545 147.206 99.448 147.206 98.35C147.206 96.822 147.158 97.0142 147.384 98.4423C147.644 100.081 148.038 101.779 148.122 103.438C148.171 104.406 148.344 101.511 148.419 100.544C148.473 99.8308 148.502 99.1176 148.54 98.4036C148.584 97.5511 148.539 100.111 148.544 100.965C148.551 102.224 148.732 103.497 148.732 104.745C148.732 106.244 148.732 101.747 148.732 100.248" stroke="#770000"/>
<path d="M148.656 97.2723C148.796 99.0604 148.997 104.391 149.267 102.618C149.458 101.356 148.834 99.0998 148.09 98.1203C147.832 97.7808 148.085 98.98 148.145 99.404C148.308 100.549 148.598 101.673 148.821 102.807C149.137 104.409 149.056 100.813 149.112 100.368C149.291 98.9484 149.5 103.204 149.778 104.608C149.899 105.22 149.801 103.358 149.801 102.734C149.801 102.524 149.744 100.202 149.856 101.312C150.01 102.848 149.916 104.388 149.97 105.928C150.014 107.16 150.106 107.543 150.106 106.093C150.106 105.187 150.106 104.281 150.106 103.375C150.106 102.705 150.344 104.697 150.403 105.366C150.493 106.39 150.533 107.406 150.746 108.414C150.872 109.006 150.755 107.203 150.755 106.598C150.755 105.985 150.675 104.154 150.763 104.76C150.935 105.944 150.859 107.161 150.871 108.354C150.872 108.422 150.946 109.864 150.946 109.273C150.946 107.511 150.963 105.746 150.687 104C150.65 103.768 150.411 102.226 150.411 103.275C150.411 104.833 150.33 106.396 150.615 107.933C150.732 108.565 150.717 108.775 150.717 107.978C150.717 106.482 150.717 104.986 150.717 103.489C150.717 102.484 150.716 102.483 150.895 103.506C151.241 105.484 151.519 107.468 151.899 109.44C151.929 109.593 152.124 110.697 152.099 109.955C152.055 108.668 152.207 107.394 152.239 106.11C152.246 105.81 152.162 104.929 152.27 105.209C152.734 106.4 152.699 107.966 152.73 109.221C152.749 109.95 152.906 112.132 152.836 111.406C152.691 109.89 152.825 108.358 152.735 106.838C152.727 106.702 152.371 103.594 152.281 103.622C152.045 103.698 152.146 107.659 152.135 108.105C152.055 111.198 152.052 108.05 152.052 106.83C152.052 105.804 152.139 104.732 151.963 103.717C151.868 103.171 151.582 105.062 151.552 105.235C151.499 105.533 151.107 108.156 151.107 107.547C151.107 106.975 151.495 103.876 151.895 105.756C152.313 107.719 152.609 109.697 152.981 111.668C153.012 111.834 153.386 113.482 153.407 113.216C153.501 112.01 153.434 110.791 153.521 109.582C153.561 109.028 153.478 107.388 153.634 107.92C154.043 109.318 153.855 113.739 153.655 112.295C153.498 111.165 153.617 109.95 153.617 108.813C153.617 108.051 153.546 105.795 153.674 107.89C153.767 109.426 153.66 110.972 153.805 112.503C153.85 112.978 153.841 113.054 153.846 112.527C153.851 111.841 153.904 111.161 154.057 110.492C154.069 110.442 154.241 111.886 154.269 112.19C154.457 114.202 154.373 111.082 154.382 110.625C154.398 109.773 154.532 112.15 154.532 111.87C154.532 111.078 154.649 110.253 154.57 109.466C154.518 108.938 154.605 110.738 154.607 110.913C154.612 111.437 154.672 113.004 154.59 112.486C154.493 111.879 154.565 111.207 154.647 110.604" stroke="#770000"/>
<path d="M155.334 112.42C155.334 113.302 155.317 114.186 155.334 115.069C155.36 116.498 155.374 112.183 155.062 110.788C154.911 110.112 155.015 110.999 155.03 111.183C155.101 112.038 155.1 112.889 155.105 113.746C155.106 113.955 155.213 115.032 155.217 114.886C155.241 114.086 155.207 113.291 155.304 112.493C155.584 110.19 155.82 113.176 155.851 113.914C155.897 115.036 155.906 116.145 156.129 117.25C156.28 118.003 156.211 116.812 156.211 116.666C156.211 115.389 156.211 114.113 156.211 112.836C156.211 112.704 156.178 112.025 156.266 112.566C156.449 113.684 156.459 114.798 156.485 115.928C156.498 116.518 156.373 118.111 156.875 118.581C156.882 118.588 157.117 117.402 157.127 117.327C157.251 116.372 157.318 115.414 157.318 114.451C157.318 113.311 157.329 116.743 157.543 117.862C157.917 119.827 157.781 116.238 157.771 115.792C157.712 113.089 157.924 117.615 157.928 118.19C157.932 118.722 157.887 119.307 158.003 119.832C158.123 120.384 158.024 118.703 158.034 118.139C158.047 117.449 157.764 115.443 158.049 116.069C158.348 116.726 158.364 117.706 158.437 118.413C158.489 118.911 158.765 121.145 158.768 121.032C158.778 120.607 158.874 117.621 159.107 118.796C159.339 119.963 159.519 121.144 159.768 122.308C159.864 122.753 159.994 124.066 160.12 123.628C160.433 122.54 160.066 119.1 160.146 120.23C160.257 121.802 160.386 123.6 160.841 125.113C161.01 125.676 160.834 123.938 160.828 123.351C160.815 122.108 160.633 120.883 160.375 119.669C160.245 119.063 160.147 118.715 160.141 119.586C160.133 120.862 160.046 122.092 159.845 123.351C159.728 124.08 159.7 123.616 159.645 123.153C159.491 121.839 159.288 120.535 159.073 119.229C158.686 116.876 159.193 118.682 159.486 119.811C159.856 121.232 160.63 125.44 160.866 123.991C160.912 123.713 161.17 121.289 161.201 122.415C161.235 123.599 161.138 124.803 161.307 125.979C161.333 126.16 161.439 126.894 161.439 126.283C161.439 125.623 161.642 123.269 161.647 123.287C161.948 124.609 162.289 128.65 162.352 127.295C162.386 126.571 162.355 125.84 162.355 125.116C162.355 124.223 162.322 124.517 162.441 125.212C162.6 126.138 162.744 127.059 162.88 127.988C162.926 128.302 162.927 128.419 162.927 128.018C162.927 127.35 162.917 126.681 162.927 126.013C162.929 125.85 163.141 127.04 163.175 127.256C163.245 127.702 163.256 128.277 163.423 128.701C163.76 129.554 163.423 126.863 163.423 125.944" stroke="#770000"/>
<path d="M163.156 124.128C162.758 124.531 162.981 127.825 162.592 125.523C162.523 125.114 161.744 121.8 161.744 123.007" stroke="#770000"/>
<path d="M163.614 127.722C163.989 127.836 164.441 132.371 164.491 130.233C164.515 129.235 164.535 128.237 164.527 127.239C164.519 126.237 164.456 126.103 164.453 127.176C164.449 129.272 164.412 135.555 164.521 133.462C164.645 131.092 164.837 128.37 164.339 126.045C163.928 124.126 164.451 129.972 164.559 131.934C164.57 132.126 164.987 135.179 164.987 134.145C164.987 132.862 164.987 131.58 164.987 130.298C164.987 129.662 165.194 127.798 164.968 128.392C164.528 129.55 164.899 131.801 164.979 133.037C165.07 134.458 165.311 130.209 165.437 128.791C165.557 127.434 166.045 131.446 166.285 132.786C166.375 133.289 166.494 134.757 166.658 134.274C166.864 133.667 166.705 132.676 166.743 132.037C166.804 130.971 166.677 127.726 166.993 130.684C167.13 131.969 167.069 133.252 167.145 134.538C167.193 135.351 167.129 134.265 167.073 134.029C166.758 132.686 166.189 131.388 165.441 130.238C165.424 130.212 165.066 129.494 165.064 129.826C165.055 130.861 165.045 131.892 165.14 132.921C165.212 133.695 165.355 131.382 165.409 130.607C165.492 129.437 165.667 132.942 165.912 134.089C166.083 134.895 165.762 132.431 165.886 131.616C166.115 130.118 166.505 134.582 166.802 136.068C167.096 137.543 167.155 134.285 167.215 133.825C167.437 132.126 167.389 135.801 167.396 136.148C167.405 136.707 167.445 138.371 167.544 137.82C167.632 137.329 167.544 136.735 167.544 136.24C167.544 135.145 167.676 134.064 167.697 132.973C167.702 132.683 167.694 132.434 167.762 132.913C168.028 134.779 168.124 136.656 168.375 138.524C168.552 139.844 168.338 135.85 168.519 134.531C168.685 133.323 168.908 136.94 169.115 138.142C169.136 138.267 169.407 140.135 169.384 139.391C169.353 138.425 169.364 137.451 169.395 136.485C169.446 134.844 169.938 138.132 170.007 138.46C170.051 138.669 170.392 139.972 170.404 139.799C170.47 138.85 170.589 137.948 170.762 137.013C170.843 136.575 170.861 136.465 170.978 137.03C171.293 138.547 171.513 140.086 171.788 141.611C172.087 143.269 171.894 139.896 171.894 139.585" stroke="#770000"/>
<path d="M171.703 138.928C171.421 139.481 170.813 143.44 171.131 140.645C171.337 138.83 171.586 141.306 171.118 139.675C170.929 139.015 170.812 141.014 170.681 141.688C170.554 142.343 170.494 140.209 170.49 140.04C170.488 139.9 170.482 137.835 170.482 138.833C170.482 139.327 170.329 139.804 170.329 140.28" stroke="#770000"/>
<path d="M171.245 141.014C171.325 142.262 171.839 143.405 172.269 144.557C172.586 145.407 172.469 144.604 172.464 144.084C172.451 142.56 172.403 140.862 171.879 139.417C171.655 138.801 171.496 138.726 171.478 139.422C171.438 141.037 171.518 142.668 171.748 144.267C171.796 144.601 172.377 146.543 172.386 146.358C172.443 145.161 172.593 143.973 172.648 142.777C172.672 142.26 172.641 140.71 172.699 141.225C172.851 142.565 173.002 143.888 173.034 145.239C173.054 146.041 173.306 150.039 173.306 147.002C173.306 145.913 173.306 144.825 173.306 143.736C173.306 143.322 173.589 145.154 173.615 145.291C173.889 146.725 174.033 148.216 174.406 149.627C174.575 150.267 174.527 149.85 174.527 149.445C174.527 148.345 174.527 147.245 174.527 146.145C174.527 145.685 174.521 145.047 174.527 145.922C174.54 147.818 175.013 153.468 175.137 151.576C175.255 149.779 175.137 147.938 175.137 146.137C175.137 144.384 175.328 149.644 175.625 151.37C175.845 152.655 175.671 148.763 175.671 147.459C175.671 145.628 176.15 151.09 176.502 152.886C176.601 153.387 176.59 153.795 176.587 153.058C176.582 151.865 176.583 150.674 176.557 149.481C176.546 148.97 176.531 148.523 176.396 148.047" stroke="#770000"/>
<path d="M174.374 145.226C174.156 144.564 174.073 145.933 174.031 146.231" stroke="#770000"/>
<path d="M176.206 142.444V149.284" stroke="#770000"/>
<path d="M175.71 148.24C174.432 147.224 173.022 145.732 172.161 144.338" stroke="#770000"/>
<path d="M177.06 150.241C177.018 150.792 176.99 151.349 177.06 151.897C177.131 152.455 177.267 153.045 177.402 153.59C177.486 153.931 177.45 153.217 177.451 153.135C177.458 152.609 177.452 152.083 177.452 151.557C177.452 150.841 177.604 152.981 177.687 153.693C177.77 154.413 177.779 152.244 177.761 151.519C177.759 151.454 177.771 150.704 177.666 150.684C177.6 150.672 177.54 151.293 177.534 151.343C177.487 151.8 177.511 152.264 177.511 152.723C177.511 152.942 177.509 152.284 177.534 152.066C177.556 151.885 177.766 151.634 177.863 151.927" stroke="#770000"/>
<path d="M178 151.828V155.28" stroke="#770000"/>
<path d="M178.196 152.622V155.994" stroke="#770000"/>
<path d="M178.275 152.959V155.815" stroke="#770000"/>
<path d="M178.243 132C178.243 173.167 146.392 206.5 107.151 206.5C67.9104 206.5 36.0601 173.167 36.0601 132C36.0601 90.8326 67.9104 57.5 107.151 57.5C146.392 57.5 178.243 90.8326 178.243 132Z" fill="#770000" stroke="white"/>
<path d="M46.5252 143H44.1246L51.0678 124.091H53.4314L60.3746 143H57.974L52.3235 127.082H52.1757L46.5252 143ZM47.4115 135.614H57.0877V137.645H47.4115V135.614ZM78.3142 124.091V143H76.0983L65.7943 128.153H65.6097V143H63.3199V124.091H65.5358L75.8767 138.974H76.0614V124.091H78.3142ZM83.6716 143H81.2711L88.2143 124.091H90.5779L97.5211 143H95.1205L89.4699 127.082H89.3222L83.6716 143ZM84.558 135.614H94.2341V137.645H84.558V135.614ZM100.466 143V124.091H102.756V140.969H111.546V143H100.466ZM112.578 124.091H115.2L120.444 132.918H120.666L125.91 124.091H128.532L121.7 135.207V143H119.41V135.207L112.578 124.091ZM131.653 126.122V124.091H145.835V126.122H139.889V143H137.599V126.122H131.653ZM151.659 124.091V143H149.369V124.091H151.659ZM171.466 130H169.176C169.04 129.341 168.803 128.763 168.465 128.264C168.132 127.766 167.726 127.347 167.246 127.009C166.772 126.664 166.246 126.405 165.667 126.233C165.089 126.061 164.485 125.974 163.858 125.974C162.713 125.974 161.675 126.264 160.746 126.842C159.823 127.421 159.087 128.273 158.539 129.4C157.998 130.526 157.727 131.908 157.727 133.545C157.727 135.183 157.998 136.565 158.539 137.691C159.087 138.817 159.823 139.67 160.746 140.249C161.675 140.827 162.713 141.116 163.858 141.116C164.485 141.116 165.089 141.03 165.667 140.858C166.246 140.686 166.772 140.43 167.246 140.092C167.726 139.747 168.132 139.325 168.465 138.827C168.803 138.322 169.04 137.743 169.176 137.091H171.466C171.293 138.057 170.979 138.922 170.524 139.685C170.068 140.449 169.502 141.098 168.825 141.634C168.148 142.163 167.388 142.566 166.544 142.843C165.707 143.12 164.812 143.259 163.858 143.259C162.245 143.259 160.811 142.865 159.555 142.077C158.299 141.289 157.311 140.169 156.591 138.716C155.871 137.263 155.511 135.54 155.511 133.545C155.511 131.551 155.871 129.828 156.591 128.375C157.311 126.922 158.299 125.802 159.555 125.014C160.811 124.226 162.245 123.832 163.858 123.832C164.812 123.832 165.707 123.971 166.544 124.248C167.388 124.525 168.148 124.931 168.825 125.467C169.502 125.996 170.068 126.642 170.524 127.406C170.979 128.163 171.293 129.027 171.466 130Z" fill="white"/>
</svg>
